<svg width="27" height="36" viewBox="0 0 27 36" fill="none" xmlns="http://www.w3.org/2000/svg">
<path d="M13.5343 31.2388C14.321 31.2388 15.0526 31.0028 15.7292 30.5308C16.1068 30.2476 16.5552 29.807 17.0744 29.2091V22.1527C15.7842 22.4673 14.6514 22.9629 13.6759 23.6395C12.0239 24.788 11.1979 26.2512 11.1979 28.0291C11.1979 29.0833 11.4339 29.8857 11.9059 30.4364C12.3937 30.9713 12.9365 31.2388 13.5343 31.2388ZM4.16504 29.4924C4.16504 27.3211 5.21132 25.5983 7.30387 24.3239C9.39643 23.0495 12.6769 21.7672 17.1452 20.4771V16.9606C17.1452 15.5289 16.8384 14.4747 16.2248 13.7982C15.6269 13.1059 14.557 12.7598 13.0151 12.7598C12.1498 12.7598 11.4339 12.925 10.8675 13.2554C10.3168 13.57 10.0415 13.9712 10.0415 14.459C10.0415 14.6478 10.073 14.8051 10.1359 14.931C10.1988 15.0569 10.2932 15.1906 10.4191 15.3322L10.7023 15.6626C10.9226 15.9301 11.0956 16.229 11.2215 16.5594C11.3631 16.8741 11.4339 17.2123 11.4339 17.5742C11.4339 18.4868 11.1271 19.1948 10.5135 19.6982C9.91563 20.186 9.21549 20.4298 8.41308 20.4298C7.48481 20.4298 6.69026 20.1545 6.02946 19.6038C5.38438 19.0532 5.06185 18.2586 5.06185 17.2202C5.06185 15.3637 5.93506 13.8926 7.68148 12.807C9.4279 11.7214 11.5755 11.1785 14.1243 11.1785C16.862 11.1785 19.1512 11.7056 20.992 12.7598C22.8171 13.8296 23.7297 15.7963 23.7297 18.6598V30.3656C23.7297 30.7117 23.8162 31.0106 23.9893 31.2624C24.1781 31.4984 24.3826 31.6164 24.6029 31.6164C24.7917 31.6164 24.9569 31.5849 25.0985 31.522C25.2558 31.4433 25.4918 31.2466 25.8065 30.932L26.5381 31.9468C25.5941 33.0481 24.5478 33.8191 23.3993 34.2596C22.6755 34.5428 21.9124 34.6844 21.11 34.6844C19.6783 34.6844 18.632 34.2675 17.9712 33.4336C17.5936 32.9616 17.3182 32.2614 17.1452 31.3332C15.8078 32.6705 14.2974 33.6145 12.6139 34.1652C11.5913 34.5113 10.5843 34.6844 9.5931 34.6844C8.27148 34.6844 7.0364 34.2675 5.88786 33.4336C4.73931 32.584 4.16504 31.2702 4.16504 29.4924ZM5.37337 26.6839H6.71859C7.19059 28.9967 8.07167 30.633 9.36182 31.5928C10.652 32.5368 11.9736 33.0088 13.3267 33.0088C14.5696 33.0088 15.4821 32.7335 16.0643 32.1828C16.6464 31.6164 16.9375 30.8769 16.9375 29.9644C16.9375 29.099 16.6228 28.3595 15.9935 27.7459C15.6474 27.4155 15.0888 27.0615 14.3179 26.6839L10.7306 24.9375C8.84261 24.0092 7.48953 23.0023 6.67139 21.9167C5.83751 20.8311 5.42057 19.5488 5.42057 18.0698C5.42057 16.1975 6.07351 14.5849 7.37939 13.2318C8.68527 11.863 10.5104 11.1785 12.8547 11.1785C13.8773 11.1785 14.9629 11.3516 16.1115 11.6978C17.26 12.0282 17.9759 12.1934 18.2591 12.1934C18.6525 12.1934 18.9278 12.1147 19.0851 11.9574C19.2582 11.7843 19.3998 11.5483 19.5099 11.2493H20.5719V18.235H19.3447C18.8885 16.5987 18.1411 15.285 17.1027 14.2938C16.0643 13.3026 14.8528 12.807 13.4683 12.807C12.3984 12.807 11.596 13.1059 11.061 13.7038C10.5418 14.3016 10.2822 14.9467 10.2822 15.639C10.2822 16.2054 10.5182 16.7718 10.9902 17.3382C11.4465 17.9204 12.3118 18.5182 13.5863 19.1318L16.2295 20.4062C17.8658 21.1929 19.0615 21.956 19.8167 22.6955C21.0754 23.9542 21.7048 25.5039 21.7048 27.3447C21.7048 29.1383 21.0518 30.814 19.7459 32.3716C18.4558 33.9135 16.5127 34.6844 13.9167 34.6844C13.2716 34.6844 12.6187 34.6136 11.9578 34.472C11.3128 34.3461 10.5104 34.118 9.55062 33.7876L8.72461 33.5044C8.42567 33.3943 8.23687 33.3313 8.1582 33.3156C8.09527 33.2999 8.00873 33.292 7.8986 33.292C7.63113 33.292 7.39513 33.4021 7.19059 33.6224C7.00179 33.8269 6.78152 34.1809 6.52978 34.6844H5.37337V26.6839ZM12.1986 31.9468C13.237 31.9468 14.1653 31.4826 14.9834 30.5544C15.8173 29.6261 16.2342 28.9731 16.2342 28.5955V16.8426C16.2342 16.4493 15.8802 15.8671 15.1722 15.0962C14.4642 14.3252 13.528 13.9398 12.3638 13.9398C10.6488 13.9398 9.48454 15.1277 8.87093 17.5034C8.54053 18.7778 8.37533 20.5793 8.37533 22.9079C8.37533 25.3938 8.53266 27.2661 8.84733 28.5247C9.42947 30.8061 10.5465 31.9468 12.1986 31.9468ZM1.24805 23.5451C1.24805 19.7218 2.15272 16.7089 3.96208 14.5062C5.78716 12.2878 7.97412 11.1785 10.5229 11.1785C11.7974 11.1785 12.9302 11.4932 13.9214 12.1226C14.535 12.5002 15.3059 13.1767 16.2342 14.1522V5.30208C16.2342 4.0906 15.9982 3.34326 15.5262 3.06006C15.0542 2.76112 14.0787 2.58018 12.5998 2.51725V1.33724H23.0075V29.1383C23.0075 30.1453 23.1963 30.8454 23.5739 31.2388C23.9515 31.6164 24.691 31.8524 25.7923 31.9468V33.056C23.0862 33.3235 21.3397 33.528 20.5531 33.6696C19.7664 33.7955 18.3818 34.1337 16.3994 34.6844V31.4984C15.4869 32.4424 14.653 33.1425 13.8978 33.5988C12.702 34.3225 11.4119 34.6844 10.0273 34.6844C7.66732 34.6844 5.6141 33.6853 3.86768 31.6872C2.12126 29.689 1.24805 26.975 1.24805 23.5451ZM4.62761 32.8436C5.61882 32.7649 6.32682 32.5447 6.75163 32.1828C7.19217 31.8209 7.41244 31.0657 7.41244 29.9172V14.1994H4.62761V12.0754H7.41244V10.2817C7.41244 8.03185 7.76644 6.18316 8.47445 4.73568C9.8118 2.02951 12.282 0.676431 15.8849 0.676431C17.8044 0.676431 19.425 1.11697 20.7466 1.99805C22.0839 2.86339 22.7526 4.01193 22.7526 5.44368C22.7526 6.34049 22.4694 7.06423 21.903 7.61491C21.3523 8.16558 20.6128 8.44092 19.6846 8.44092C18.9136 8.44092 18.2528 8.18918 17.7022 7.68571C17.1515 7.18224 16.8761 6.5765 16.8761 5.86849C16.8761 5.33355 17.0492 4.77501 17.3953 4.19287C17.7572 3.595 17.9382 3.23313 17.9382 3.10726C17.9382 2.71392 17.7966 2.46218 17.5133 2.35205C17.2301 2.24191 16.9233 2.18685 16.5929 2.18685C15.8063 2.18685 15.2005 2.41498 14.7757 2.87125C14.3509 3.32753 14.1385 4.31087 14.1385 5.82129V12.0754H18.3394V14.1994H14.1385V29.0439C14.1385 30.7117 14.3745 31.7344 14.8465 32.112C15.3343 32.4896 16.4041 32.7335 18.0562 32.8436V34H4.62761V32.8436Z" fill="black"/>
<path d="M15.7292 30.5308L15.8723 30.7359L15.8792 30.7308L15.7292 30.5308ZM17.0744 29.2091L17.2631 29.3731L17.3244 29.3025V29.2091H17.0744ZM17.0744 22.1527H17.3244V21.8344L17.0151 21.9098L17.0744 22.1527ZM13.6759 23.6395L13.5335 23.4341L13.5332 23.4342L13.6759 23.6395ZM11.9059 30.4364L11.716 30.5991L11.7212 30.6048L11.9059 30.4364ZM7.30387 24.3239L7.17383 24.1104L7.30387 24.3239ZM17.1452 20.4771L17.2145 20.7172L17.3952 20.6651V20.4771H17.1452ZM16.2248 13.7982L16.0355 13.9616L16.0396 13.9661L16.2248 13.7982ZM10.8675 13.2554L10.9916 13.4724L10.9935 13.4713L10.8675 13.2554ZM10.4191 15.3322L10.609 15.1695L10.606 15.1661L10.4191 15.3322ZM10.7023 15.6626L10.8953 15.5036L10.8921 15.4999L10.7023 15.6626ZM11.2215 16.5594L10.9879 16.6484L10.9905 16.6553L10.9935 16.662L11.2215 16.5594ZM10.5135 19.6982L10.6715 19.892L10.6721 19.8915L10.5135 19.6982ZM6.02946 19.6038L5.86713 19.794L5.86941 19.7959L6.02946 19.6038ZM20.992 12.7598L21.1185 12.5441L21.1163 12.5428L20.992 12.7598ZM23.9893 31.2624L23.7832 31.404L23.7884 31.4115L23.794 31.4185L23.9893 31.2624ZM25.0985 31.522L25.2001 31.7507L25.2103 31.7456L25.0985 31.522ZM25.8065 30.932L26.0093 30.7858L25.8375 30.5474L25.6297 30.7552L25.8065 30.932ZM26.5381 31.9468L26.7279 32.1095L26.8559 31.9601L26.7409 31.8006L26.5381 31.9468ZM23.3993 34.2596L23.3097 34.0262L23.3082 34.0268L23.3993 34.2596ZM17.9712 33.4336L18.1671 33.2783L18.1664 33.2774L17.9712 33.4336ZM17.1452 31.3332L17.3909 31.2873L17.304 30.8208L16.9684 31.1564L17.1452 31.3332ZM12.6139 34.1652L12.5362 33.9276L12.5338 33.9284L12.6139 34.1652ZM5.88786 33.4336L5.73917 33.6346L5.74098 33.6359L5.88786 33.4336ZM13.5343 31.4888C14.3748 31.4888 15.1559 31.2356 15.8722 30.7358L15.5861 30.3257C14.9494 30.77 14.2673 30.9888 13.5343 30.9888V31.4888ZM15.8792 30.7308C16.2772 30.4322 16.739 29.9766 17.2631 29.3731L16.8856 29.0452C16.3714 29.6374 15.9363 30.0629 15.5792 30.3308L15.8792 30.7308ZM17.3244 29.2091V22.1527H16.8244V29.2091H17.3244ZM17.0151 21.9098C15.6987 22.2309 14.537 22.7381 13.5335 23.4341L13.8184 23.8449C14.7659 23.1878 15.8698 22.7038 17.1336 22.3955L17.0151 21.9098ZM13.5332 23.4342C11.8243 24.6224 10.9479 26.1576 10.9479 28.0291H11.4479C11.4479 26.3449 12.2236 24.9537 13.8187 23.8448L13.5332 23.4342ZM10.9479 28.0291C10.9479 29.1165 11.1909 29.9864 11.7161 30.5991L12.0957 30.2737C11.6769 29.785 11.4479 29.0501 11.4479 28.0291H10.9479ZM11.7212 30.6048C12.2455 31.1798 12.8516 31.4888 13.5343 31.4888V30.9888C13.0214 30.9888 12.5418 30.7628 12.0907 30.2679L11.7212 30.6048ZM4.41504 29.4924C4.41504 27.4209 5.40445 25.7734 7.43391 24.5374L7.17383 24.1104C5.01818 25.4232 3.91504 27.2213 3.91504 29.4924H4.41504ZM7.43391 24.5374C9.49746 23.2807 12.7521 22.0057 17.2145 20.7172L17.0758 20.2369C12.6016 21.5287 9.2954 22.8183 7.17383 24.1104L7.43391 24.5374ZM17.3952 20.4771V16.9606H16.8952V20.4771H17.3952ZM17.3952 16.9606C17.3952 15.5005 17.0834 14.3728 16.41 13.6302L16.0396 13.9661C16.5933 14.5767 16.8952 15.5572 16.8952 16.9606H17.3952ZM16.414 13.6348C15.7443 12.8594 14.5817 12.5098 13.0151 12.5098V13.0098C14.5323 13.0098 15.5095 13.3524 16.0356 13.9616L16.414 13.6348ZM13.0151 12.5098C12.1193 12.5098 11.3565 12.6807 10.7415 13.0394L10.9935 13.4713C11.5113 13.1692 12.1803 13.0098 13.0151 13.0098V12.5098ZM10.7435 13.0383C10.1418 13.3821 9.7915 13.8543 9.7915 14.459H10.2915C10.2915 14.0882 10.4918 13.758 10.9915 13.4724L10.7435 13.0383ZM9.7915 14.459C9.7915 14.6739 9.82712 14.8724 9.9123 15.0428L10.3595 14.8192C10.3188 14.7378 10.2915 14.6216 10.2915 14.459H9.7915ZM9.9123 15.0428C9.98776 15.1937 10.0965 15.3455 10.2323 15.4983L10.606 15.1661C10.49 15.0356 10.4099 14.92 10.3595 14.8192L9.9123 15.0428ZM10.2293 15.4949L10.5125 15.8253L10.8921 15.4999L10.6089 15.1695L10.2293 15.4949ZM10.5093 15.8215C10.712 16.0676 10.8715 16.3428 10.9879 16.6484L11.4551 16.4704C11.3198 16.1152 11.1332 15.7925 10.8953 15.5037L10.5093 15.8215ZM10.9935 16.662C11.1199 16.9428 11.1839 17.246 11.1839 17.5742H11.6839C11.6839 17.1787 11.6063 16.8053 11.4495 16.4568L10.9935 16.662ZM11.1839 17.5742C11.1839 18.4245 10.9016 19.0564 10.3549 19.505L10.6721 19.8915C11.3526 19.3331 11.6839 18.5491 11.6839 17.5742H11.1839ZM10.3555 19.5045C9.80412 19.9543 9.1604 20.1798 8.41308 20.1798V20.6798C9.27059 20.6798 10.0271 20.4176 10.6715 19.892L10.3555 19.5045ZM8.41308 20.1798C7.53831 20.1798 6.8017 19.9219 6.1895 19.4118L5.86941 19.7959C6.57883 20.3871 7.4313 20.6798 8.41308 20.6798V20.1798ZM6.19177 19.4137C5.61466 18.921 5.31185 18.2034 5.31185 17.2202H4.81185C4.81185 18.3139 5.15411 19.1853 5.86714 19.794L6.19177 19.4137ZM5.31185 17.2202C5.31185 15.4606 6.13101 14.0651 7.81346 13.0193L7.54949 12.5946C5.73911 13.72 4.81185 15.2667 4.81185 17.2202H5.31185ZM7.81346 13.0193C9.51176 11.9636 11.611 11.4285 14.1243 11.4285V10.9285C11.54 10.9285 9.34403 11.4791 7.54949 12.5946L7.81346 13.0193ZM14.1243 11.4285C16.8308 11.4285 19.0742 11.9496 20.8678 12.9767L21.1163 12.5428C19.2282 11.4616 16.8932 10.9285 14.1243 10.9285V11.4285ZM20.8656 12.9754C22.5878 13.985 23.4797 15.8496 23.4797 18.6598H23.9797C23.9797 15.743 23.0464 13.6742 21.1185 12.5441L20.8656 12.9754ZM23.4797 18.6598V30.3656H23.9797V18.6598H23.4797ZM23.4797 30.3656C23.4797 30.7553 23.5778 31.1052 23.7832 31.404L24.1953 31.1207C24.0546 30.9161 23.9797 30.6681 23.9797 30.3656H23.4797ZM23.794 31.4185C24.0116 31.6904 24.281 31.8664 24.6029 31.8664V31.3664C24.4842 31.3664 24.3446 31.3063 24.1845 31.1062L23.794 31.4185ZM24.6029 31.8664C24.8192 31.8664 25.0203 31.8303 25.2 31.7504L24.9969 31.2935C24.8935 31.3395 24.7642 31.3664 24.6029 31.3664V31.8664ZM25.2103 31.7456C25.4082 31.6466 25.67 31.422 25.9833 31.1087L25.6297 30.7552C25.3137 31.0712 25.1034 31.24 24.9867 31.2984L25.2103 31.7456ZM25.6037 31.0782L26.3353 32.093L26.7409 31.8006L26.0093 30.7858L25.6037 31.0782ZM26.3483 31.7841C25.4264 32.8595 24.4131 33.603 23.3097 34.0262L23.4888 34.493C24.6825 34.0351 25.7617 33.2367 26.7279 32.1095L26.3483 31.7841ZM23.3082 34.0268C22.6144 34.2983 21.8823 34.4344 21.11 34.4344V34.9344C21.9426 34.9344 22.7366 34.7873 23.4903 34.4924L23.3082 34.0268ZM21.11 34.4344C19.7264 34.4344 18.7654 34.0333 18.1671 33.2783L17.7753 33.5889C18.4986 34.5017 19.6302 34.9344 21.11 34.9344V34.4344ZM18.1664 33.2774C17.8249 32.8506 17.5603 32.1958 17.3909 31.2873L16.8994 31.379C17.0762 32.3271 17.3622 33.0726 17.776 33.5898L18.1664 33.2774ZM16.9684 31.1564C15.6569 32.4679 14.1798 33.39 12.5362 33.9276L12.6917 34.4028C14.415 33.8391 15.9588 32.8731 17.322 31.5099L16.9684 31.1564ZM12.5338 33.9284C11.5346 34.2666 10.5547 34.4344 9.5931 34.4344V34.9344C10.6139 34.9344 11.6479 34.7561 12.6941 34.402L12.5338 33.9284ZM9.5931 34.4344C8.32823 34.4344 7.14392 34.0366 6.03473 33.2313L5.74098 33.6359C6.92888 34.4983 8.21473 34.9344 9.5931 34.9344V34.4344ZM6.03653 33.2326C4.96727 32.4416 4.41504 31.2125 4.41504 29.4924H3.91504C3.91504 31.3279 4.51135 32.7263 5.73918 33.6346L6.03653 33.2326ZM5.37337 26.6839V26.4339H5.12337V26.6839H5.37337ZM6.71859 26.6839L6.96354 26.6339L6.92272 26.4339H6.71859V26.6839ZM9.36182 31.5928L9.21259 31.7934L9.21419 31.7945L9.36182 31.5928ZM16.0643 32.1828L16.2361 32.3644L16.2386 32.362L16.0643 32.1828ZM15.9935 27.7459L16.168 27.5669L16.1661 27.5651L15.9935 27.7459ZM14.3179 26.6839L14.4278 26.4594L14.4273 26.4591L14.3179 26.6839ZM10.7306 24.9375L10.6203 25.1619L10.6212 25.1623L10.7306 24.9375ZM6.67139 21.9167L6.87105 21.7662L6.86965 21.7644L6.67139 21.9167ZM7.37939 13.2318L7.55928 13.4054L7.56028 13.4043L7.37939 13.2318ZM16.1115 11.6978L16.0393 11.9371L16.0424 11.938L16.1115 11.6978ZM19.5099 11.2493V10.9993H19.3356L19.2753 11.1629L19.5099 11.2493ZM20.5719 11.2493H20.8219V10.9993H20.5719V11.2493ZM20.5719 18.235V18.485H20.8219V18.235H20.5719ZM19.3447 18.235L19.1039 18.3022L19.1549 18.485H19.3447V18.235ZM11.061 13.7038L10.8747 13.5371L10.8723 13.5399L11.061 13.7038ZM10.9902 17.3382L11.1871 17.1839L11.1823 17.1782L10.9902 17.3382ZM13.5863 19.1318L13.6948 18.9066L13.6947 18.9066L13.5863 19.1318ZM16.2295 20.4062L16.1209 20.6314L16.1212 20.6316L16.2295 20.4062ZM19.8167 22.6955L19.9935 22.5187L19.9916 22.5168L19.8167 22.6955ZM19.7459 32.3716L19.5544 32.211L19.5542 32.2112L19.7459 32.3716ZM11.9578 34.472L12.0102 34.2275L12.0057 34.2266L11.9578 34.472ZM9.55062 33.7876L9.632 33.5512L9.6317 33.5511L9.55062 33.7876ZM8.72461 33.5044L8.63816 33.739L8.64353 33.7409L8.72461 33.5044ZM8.1582 33.3156L8.0975 33.5584L8.10917 33.5607L8.1582 33.3156ZM7.19059 33.6224L7.00739 33.4523L7.00689 33.4528L7.19059 33.6224ZM6.52978 34.6844V34.9344H6.68429L6.75339 34.7962L6.52978 34.6844ZM5.37337 34.6844H5.12337V34.9344H5.37337V34.6844ZM5.37337 26.9339H6.71859V26.4339H5.37337V26.9339ZM6.47363 26.7339C6.9523 29.0793 7.85437 30.783 9.2126 31.7934L9.51103 31.3922C8.28896 30.4831 7.42889 28.9141 6.96354 26.6339L6.47363 26.7339ZM9.21419 31.7945C10.5392 32.764 11.9114 33.2588 13.3267 33.2588V32.7588C12.0358 32.7588 10.7648 32.3095 9.50944 31.391L9.21419 31.7945ZM13.3267 33.2588C14.5995 33.2588 15.5876 32.9778 16.2361 32.3644L15.8925 32.0012C15.3767 32.4891 14.5398 32.7588 13.3267 32.7588V33.2588ZM16.2386 32.362C16.8753 31.7425 17.1875 30.9352 17.1875 29.9644H16.6875C16.6875 30.8185 16.4175 31.4903 15.89 32.0036L16.2386 32.362ZM17.1875 29.9644C17.1875 29.0304 16.8448 28.2268 16.168 27.5669L15.819 27.9249C16.4009 28.4923 16.6875 29.1676 16.6875 29.9644H17.1875ZM16.1661 27.5651C15.7923 27.2082 15.2066 26.8408 14.4278 26.4594L14.2079 26.9084C14.971 27.2822 15.5024 27.6228 15.8209 27.9268L16.1661 27.5651ZM14.4273 26.4591L10.8401 24.7127L10.6212 25.1623L14.2084 26.9087L14.4273 26.4591ZM10.8409 24.7131C8.97065 23.7936 7.65618 22.808 6.87104 21.7662L6.47173 22.0671C7.32288 23.1965 8.71457 24.2249 10.6203 25.1618L10.8409 24.7131ZM6.86965 21.7644C6.07208 20.726 5.67057 19.4984 5.67057 18.0698H5.17057C5.17057 19.5991 5.60294 20.9361 6.47312 22.069L6.86965 21.7644ZM5.67057 18.0698C5.67057 16.2626 6.29816 14.7121 7.55928 13.4054L7.19951 13.0582C5.84887 14.4576 5.17057 16.1325 5.17057 18.0698H5.67057ZM7.56028 13.4043C8.80816 12.0963 10.5613 11.4285 12.8547 11.4285V10.9285C10.4595 10.9285 8.56239 11.6296 7.19851 13.0592L7.56028 13.4043ZM12.8547 11.4285C13.8491 11.4285 14.9103 11.5968 16.0394 11.9371L16.1836 11.4584C15.0156 11.1064 13.9056 10.9285 12.8547 10.9285V11.4285ZM16.0424 11.938C16.6186 12.1038 17.0895 12.229 17.4536 12.3131C17.8098 12.3953 18.0854 12.4434 18.2591 12.4434V11.9434C18.1496 11.9434 17.9257 11.9089 17.566 11.8259C17.2142 11.7447 16.7529 11.6221 16.1806 11.4575L16.0424 11.938ZM18.2591 12.4434C18.6719 12.4434 19.0326 12.3634 19.2619 12.1341L18.9083 11.7806C18.823 11.8659 18.633 11.9434 18.2591 11.9434V12.4434ZM19.2619 12.1341C19.467 11.929 19.6255 11.6588 19.7445 11.3358L19.2753 11.1629C19.1741 11.4377 19.0493 11.6396 18.9083 11.7806L19.2619 12.1341ZM19.5099 11.4993H20.5719V10.9993H19.5099V11.4993ZM20.3219 11.2493V18.235H20.8219V11.2493H20.3219ZM20.5719 17.985H19.3447V18.485H20.5719V17.985ZM19.5855 18.1679C19.1194 16.4963 18.3518 15.1405 17.2753 14.1129L16.9301 14.4746C17.9304 15.4295 18.6575 16.7012 19.1039 18.3022L19.5855 18.1679ZM17.2753 14.1129C16.1923 13.0792 14.9197 12.557 13.4683 12.557V13.057C14.7859 13.057 15.9363 13.526 16.9301 14.4746L17.2753 14.1129ZM13.4683 12.557C12.3522 12.557 11.4715 12.8701 10.8747 13.5371L11.2473 13.8705C11.7204 13.3417 12.4446 13.057 13.4683 13.057V12.557ZM10.8723 13.5399C10.3196 14.1762 10.0322 14.8779 10.0322 15.639H10.5322C10.5322 15.0156 10.764 14.427 11.2498 13.8677L10.8723 13.5399ZM10.0322 15.639C10.0322 16.2796 10.3002 16.9007 10.7982 17.4983L11.1823 17.1782C10.7363 16.6429 10.5322 16.1312 10.5322 15.639H10.0322ZM10.7935 17.4924C11.2863 18.1212 12.1948 18.7394 13.4778 19.3571L13.6947 18.9066C12.4289 18.2971 11.6067 17.7195 11.187 17.184L10.7935 17.4924ZM13.4777 19.357L16.1209 20.6314L16.3381 20.1811L13.6948 18.9066L13.4777 19.357ZM16.1212 20.6316C17.7478 21.4136 18.9152 22.1626 19.6418 22.8741L19.9916 22.5168C19.2078 21.7494 17.9837 20.9722 16.3378 20.1809L16.1212 20.6316ZM19.64 22.8723C20.85 24.0823 21.4548 25.5677 21.4548 27.3447H21.9548C21.9548 25.4401 21.3008 23.826 19.9935 22.5187L19.64 22.8723ZM21.4548 27.3447C21.4548 29.0718 20.8278 30.692 19.5544 32.211L19.9375 32.5322C21.2758 30.9359 21.9548 29.2049 21.9548 27.3447H21.4548ZM19.5542 32.2112C18.3247 33.6806 16.4619 34.4344 13.9167 34.4344V34.9344C16.5635 34.9344 18.5869 34.1463 19.9377 32.532L19.5542 32.2112ZM13.9167 34.4344C13.29 34.4344 12.6546 34.3656 12.0102 34.2276L11.9055 34.7165C12.5827 34.8616 13.2532 34.9344 13.9167 34.9344V34.4344ZM12.0057 34.2266C11.3764 34.1038 10.586 33.8796 9.632 33.5512L9.46924 34.024C10.4347 34.3564 11.2492 34.5884 11.91 34.7174L12.0057 34.2266ZM9.6317 33.5511L8.80569 33.2679L8.64353 33.7409L9.46954 34.0241L9.6317 33.5511ZM8.81103 33.2698C8.51889 33.1622 8.30932 33.0909 8.20723 33.0704L8.10917 33.5607C8.16442 33.5718 8.33246 33.6263 8.63818 33.739L8.81103 33.2698ZM8.21884 33.0731C8.12704 33.0501 8.0171 33.042 7.8986 33.042V33.542C8.00036 33.542 8.06349 33.5496 8.09757 33.5581L8.21884 33.0731ZM7.8986 33.042C7.55264 33.042 7.25276 33.188 7.00739 33.4523L7.37379 33.7925C7.53749 33.6162 7.70962 33.542 7.8986 33.542V33.042ZM7.00689 33.4528C6.79304 33.6845 6.56 34.065 6.30618 34.5726L6.75339 34.7962C7.00304 34.2969 7.21054 33.9694 7.37429 33.792L7.00689 33.4528ZM6.52978 34.4344H5.37337V34.9344H6.52978V34.4344ZM5.62337 34.6844V26.6839H5.12337V34.6844H5.62337ZM14.9834 30.5544L14.7974 30.3873L14.7958 30.3891L14.9834 30.5544ZM8.87093 17.5034L9.11293 17.5662L9.11299 17.5659L8.87093 17.5034ZM8.84733 28.5247L8.60479 28.5854L8.60509 28.5866L8.84733 28.5247ZM3.96208 14.5062L3.76902 14.3474L3.7689 14.3475L3.96208 14.5062ZM13.9214 12.1226L13.7874 12.3336L13.7904 12.3355L13.9214 12.1226ZM16.2342 14.1522L16.0531 14.3245L16.4842 14.7775V14.1522H16.2342ZM15.5262 3.06006L15.3924 3.27132L15.3976 3.27443L15.5262 3.06006ZM12.5998 2.51725H12.3498V2.75684L12.5891 2.76702L12.5998 2.51725ZM12.5998 1.33724V1.08724H12.3498V1.33724H12.5998ZM23.0075 1.33724H23.2575V1.08724H23.0075V1.33724ZM23.5739 31.2388L23.3935 31.4119L23.3971 31.4155L23.5739 31.2388ZM25.7923 31.9468H26.0423V31.7173L25.8137 31.6977L25.7923 31.9468ZM25.7923 33.056L25.8169 33.3048L26.0423 33.2825V33.056H25.7923ZM20.5531 33.6696L20.5926 33.9165L20.5973 33.9156L20.5531 33.6696ZM16.3994 34.6844H16.1494V35.0133L16.4663 34.9253L16.3994 34.6844ZM16.3994 31.4984H16.6494V30.8801L16.2197 31.3246L16.3994 31.4984ZM13.8978 33.5988L13.7685 33.3848L13.7683 33.3849L13.8978 33.5988ZM12.1986 32.1968C13.3226 32.1968 14.3153 31.6905 15.171 30.7197L14.7958 30.3891C14.0152 31.2748 13.1514 31.6968 12.1986 31.6968V32.1968ZM15.1694 30.7214C15.5906 30.2525 15.9134 29.8457 16.1322 29.503C16.3444 29.1707 16.4842 28.8608 16.4842 28.5955H15.9842C15.9842 28.7079 15.9155 28.9133 15.7108 29.2339C15.5127 29.5441 15.21 29.928 14.7974 30.3873L15.1694 30.7214ZM16.4842 28.5955V16.8426H15.9842V28.5955H16.4842ZM16.4842 16.8426C16.4842 16.5777 16.3679 16.2862 16.1823 15.9811C15.9936 15.6707 15.7162 15.3189 15.3563 14.9271L14.9881 15.2653C15.3362 15.6444 15.5899 15.9692 15.7551 16.2409C15.9236 16.5179 15.9842 16.7142 15.9842 16.8426H16.4842ZM15.3563 14.9271C14.5954 14.0985 13.5893 13.6898 12.3638 13.6898V14.1898C13.4668 14.1898 14.333 14.552 14.9881 15.2653L15.3563 14.9271ZM12.3638 13.6898C11.4415 13.6898 10.6566 14.0121 10.0258 14.6557C9.40181 15.2923 8.94178 16.2294 8.62887 17.4409L9.11299 17.5659C9.41369 16.4017 9.8426 15.5569 10.3829 15.0057C10.9164 14.4614 11.5711 14.1898 12.3638 14.1898V13.6898ZM8.62893 17.4407C8.29065 18.7455 8.12533 20.5717 8.12533 22.9079H8.62533C8.62533 20.5869 8.79041 18.8102 9.11293 17.5662L8.62893 17.4407ZM8.12533 22.9079C8.12533 25.3992 8.28251 27.2962 8.6048 28.5854L9.08987 28.4641C8.78281 27.2359 8.62533 25.3883 8.62533 22.9079H8.12533ZM8.60509 28.5866C8.90223 29.751 9.34255 30.6529 9.94313 31.2662C10.5505 31.8864 11.308 32.1968 12.1986 32.1968V31.6968C11.4372 31.6968 10.8101 31.4368 10.3004 30.9163C9.78386 30.3889 9.37457 29.5798 9.08957 28.4629L8.60509 28.5866ZM1.49805 23.5451C1.49805 19.7599 2.3935 16.8096 4.15526 14.6649L3.7689 14.3475C1.91195 16.6081 0.998047 19.6838 0.998047 23.5451H1.49805ZM4.15514 14.665C5.93954 12.496 8.05895 11.4285 10.5229 11.4285V10.9285C7.88929 10.9285 5.63479 12.0795 3.76902 14.3474L4.15514 14.665ZM10.5229 11.4285C11.7541 11.4285 12.8397 11.7319 13.7874 12.3336L14.0554 11.9115C13.0207 11.2546 11.8406 10.9285 10.5229 10.9285V11.4285ZM13.7904 12.3355C14.376 12.6959 15.1292 13.3536 16.0531 14.3245L16.4153 13.9798C15.4827 12.9998 14.6939 12.3044 14.0524 11.9096L13.7904 12.3355ZM16.4842 14.1522V5.30208H15.9842V14.1522H16.4842ZM16.4842 5.30208C16.4842 4.68314 16.4243 4.16519 16.2956 3.75768C16.1669 3.35024 15.9616 3.02976 15.6548 2.84568L15.3976 3.27443C15.5628 3.37356 15.7115 3.56835 15.8188 3.90825C15.9261 4.24808 15.9842 4.70955 15.9842 5.30208H16.4842ZM15.66 2.84885C15.3838 2.67392 14.9848 2.54683 14.4862 2.45435C13.9828 2.36097 13.3565 2.29923 12.6104 2.26748L12.5891 2.76702C13.322 2.79821 13.9229 2.8584 14.395 2.94596C14.8719 3.03442 15.1966 3.14725 15.3924 3.27126L15.66 2.84885ZM12.8498 2.51725V1.33724H12.3498V2.51725H12.8498ZM12.5998 1.58724H23.0075V1.08724H12.5998V1.58724ZM22.7575 1.33724V29.1383H23.2575V1.33724H22.7575ZM22.7575 29.1383C22.7575 30.1608 22.9461 30.9458 23.3935 31.4119L23.7542 31.0656C23.4465 30.7451 23.2575 30.1298 23.2575 29.1383H22.7575ZM23.3971 31.4155C23.8426 31.861 24.6633 32.1009 25.771 32.1959L25.8137 31.6977C24.7187 31.6038 24.0604 31.3718 23.7507 31.062L23.3971 31.4155ZM25.5423 31.9468V33.056H26.0423V31.9468H25.5423ZM25.7677 32.8072C23.0641 33.0744 21.3072 33.2798 20.5088 33.4236L20.5973 33.9156C21.3723 33.7761 23.1082 33.5725 25.8169 33.3048L25.7677 32.8072ZM20.5136 33.4227C19.7113 33.5511 18.3142 33.8931 16.3325 34.4435L16.4663 34.9253C18.4495 34.3744 19.8215 34.0398 20.5926 33.9165L20.5136 33.4227ZM16.6494 34.6844V31.4984H16.1494V34.6844H16.6494ZM16.2197 31.3246C15.3156 32.2599 14.4986 32.9437 13.7685 33.3848L14.0271 33.8128C14.8074 33.3413 15.6582 32.6249 16.5792 31.6721L16.2197 31.3246ZM13.7683 33.3849C12.6112 34.0853 11.3658 34.4344 10.0273 34.4344V34.9344C11.458 34.9344 12.7928 34.5598 14.0272 33.8127L13.7683 33.3849ZM10.0273 34.4344C7.74891 34.4344 5.76145 33.474 4.05591 31.5227L3.67944 31.8517C5.46674 33.8966 7.58573 34.9344 10.0273 34.9344V34.4344ZM4.05591 31.5227C2.35981 29.5821 1.49805 26.9326 1.49805 23.5451H0.998047C0.998047 27.0174 1.88271 29.796 3.67944 31.8517L4.05591 31.5227ZM4.62761 32.8436L4.60783 32.5944L4.37761 32.6126V32.8436H4.62761ZM6.75163 32.1828L6.59292 31.9896L6.58951 31.9925L6.75163 32.1828ZM7.41244 14.1994H7.66244V13.9494H7.41244V14.1994ZM4.62761 14.1994H4.37761V14.4494H4.62761V14.1994ZM4.62761 12.0754V11.8254H4.37761V12.0754H4.62761ZM7.41244 12.0754V12.3254H7.66244V12.0754H7.41244ZM8.47445 4.73568L8.25032 4.62491L8.24987 4.62583L8.47445 4.73568ZM20.7466 1.99805L20.6079 2.20608L20.6108 2.20794L20.7466 1.99805ZM21.903 7.61491L21.7287 7.43564L21.7262 7.43813L21.903 7.61491ZM17.3953 4.19287L17.1815 4.06341L17.1805 4.0651L17.3953 4.19287ZM14.1385 12.0754H13.8885V12.3254H14.1385V12.0754ZM18.3394 12.0754H18.5894V11.8254H18.3394V12.0754ZM18.3394 14.1994V14.4494H18.5894V14.1994H18.3394ZM14.1385 14.1994V13.9494H13.8885V14.1994H14.1385ZM14.8465 32.112L14.6903 32.3072L14.6935 32.3097L14.8465 32.112ZM18.0562 32.8436H18.3062V32.6097L18.0728 32.5941L18.0562 32.8436ZM18.0562 34V34.25H18.3062V34H18.0562ZM4.62761 34H4.37761V34.25H4.62761V34ZM4.64738 33.0928C5.65496 33.0128 6.42809 32.7868 6.91375 32.3731L6.58951 31.9925C6.22556 32.3025 5.58267 32.517 4.60783 32.5944L4.64738 33.0928ZM6.91031 32.376C7.18169 32.153 7.36821 31.8231 7.48723 31.415C7.60628 31.0068 7.66244 30.5053 7.66244 29.9172H7.16244C7.16244 30.4776 7.10845 30.9279 7.00723 31.275C6.90599 31.6221 6.76211 31.8506 6.59294 31.9896L6.91031 32.376ZM7.66244 29.9172V14.1994H7.16244V29.9172H7.66244ZM7.41244 13.9494H4.62761V14.4494H7.41244V13.9494ZM4.87761 14.1994V12.0754H4.37761V14.1994H4.87761ZM4.62761 12.3254H7.41244V11.8254H4.62761V12.3254ZM7.66244 12.0754V10.2817H7.16244V12.0754H7.66244ZM7.66244 10.2817C7.66244 8.05575 8.01302 6.24802 8.69902 4.84552L8.24987 4.62583C7.51986 6.1183 7.16244 8.00794 7.16244 10.2817H7.66244ZM8.69857 4.84644C9.34624 3.53585 10.2634 2.5606 11.4502 1.9105C12.6396 1.25899 14.114 0.926431 15.8849 0.926431V0.426431C14.0529 0.426431 12.4908 0.770409 11.21 1.47198C9.92662 2.17496 8.94 3.22933 8.25032 4.62492L8.69857 4.84644ZM15.8849 0.926431C17.7655 0.926431 19.3352 1.35762 20.6079 2.20606L20.8853 1.79003C19.5147 0.87632 17.8434 0.426431 15.8849 0.426431V0.926431ZM20.6108 2.20794C21.8864 3.03334 22.5026 4.10744 22.5026 5.44368H23.0026C23.0026 3.91643 22.2815 2.69343 20.8824 1.78815L20.6108 2.20794ZM22.5026 5.44368C22.5026 6.28295 22.24 6.93859 21.7287 7.43566L22.0773 7.79416C22.6988 7.18988 23.0026 6.39803 23.0026 5.44368H22.5026ZM21.7262 7.43813C21.2313 7.93308 20.5602 8.19092 19.6846 8.19092V8.69092C20.6655 8.69092 21.4734 8.39809 22.0798 7.79168L21.7262 7.43813ZM19.6846 8.19092C18.9738 8.19092 18.3738 7.96102 17.8708 7.5012L17.5335 7.87022C18.1319 8.41734 18.8535 8.69092 19.6846 8.69092V8.19092ZM17.8708 7.5012C17.3688 7.04221 17.1261 6.50215 17.1261 5.86849H16.6261C16.6261 6.65084 16.9341 7.32226 17.5335 7.87022L17.8708 7.5012ZM17.1261 5.86849C17.1261 5.38902 17.281 4.87427 17.6102 4.32064L17.1805 4.0651C16.8174 4.67575 16.6261 5.27808 16.6261 5.86849H17.1261ZM17.6092 4.32232C17.7915 4.02111 17.9312 3.77459 18.0261 3.58486C18.0734 3.49022 18.1116 3.40559 18.1386 3.33286C18.1629 3.26729 18.1882 3.18584 18.1882 3.10726H17.6882C17.6882 3.09161 17.6907 3.1026 17.6698 3.15896C17.6516 3.20816 17.622 3.27497 17.5788 3.36126C17.4928 3.5334 17.361 3.76675 17.1815 4.06342L17.6092 4.32232ZM18.1882 3.10726C18.1882 2.88253 18.148 2.6753 18.0498 2.50089C17.9491 2.32182 17.7965 2.19391 17.604 2.11905L17.4227 2.58505C17.5134 2.62033 17.5732 2.67335 17.6141 2.74602C17.6576 2.82334 17.6882 2.93865 17.6882 3.10726H18.1882ZM17.604 2.11905C17.2894 1.99673 16.9516 1.93685 16.5929 1.93685V2.43685C16.8951 2.43685 17.1709 2.48709 17.4227 2.58505L17.604 2.11905ZM16.5929 1.93685C15.7562 1.93685 15.0766 2.18122 14.5927 2.7009L14.9587 3.04161C15.3245 2.64875 15.8563 2.43685 16.5929 2.43685V1.93685ZM14.5927 2.7009C14.3363 2.97638 14.1639 3.38685 14.0534 3.89818C13.9421 4.41351 13.8885 5.05623 13.8885 5.82129H14.3885C14.3885 5.07593 14.4411 4.47177 14.5422 4.00375C14.6441 3.53174 14.7904 3.2224 14.9587 3.04161L14.5927 2.7009ZM13.8885 5.82129V12.0754H14.3885V5.82129H13.8885ZM14.1385 12.3254H18.3394V11.8254H14.1385V12.3254ZM18.0894 12.0754V14.1994H18.5894V12.0754H18.0894ZM18.3394 13.9494H14.1385V14.4494H18.3394V13.9494ZM13.8885 14.1994V29.0439H14.3885V14.1994H13.8885ZM13.8885 29.0439C13.8885 29.8871 13.9479 30.5807 14.0719 31.118C14.1942 31.6478 14.3882 32.0654 14.6903 32.3072L15.0027 31.9168C14.8329 31.7809 14.6728 31.4984 14.5591 31.0056C14.4471 30.5202 14.3885 29.8686 14.3885 29.0439H13.8885ZM14.6935 32.3097C14.9804 32.5318 15.4122 32.6972 15.9592 32.8218C16.5116 32.9478 17.2063 33.0375 18.0395 33.093L18.0728 32.5941C17.254 32.5396 16.5877 32.4523 16.0703 32.3343C15.5474 32.2151 15.2003 32.0697 14.9996 31.9143L14.6935 32.3097ZM17.8062 32.8436V34H18.3062V32.8436H17.8062ZM18.0562 33.75H4.62761V34.25H18.0562V33.75ZM4.87761 34V32.8436H4.37761V34H4.87761Z" fill="white"/>
</svg>
