<svg width="1226" height="1226" viewBox="0 0 1226 1226" fill="none" xmlns="http://www.w3.org/2000/svg">
<path d="M862.675 638.266C861.422 637.013 859.392 637.013 858.14 638.266L837.733 658.672C836.481 659.924 836.481 661.955 837.733 663.207C838.985 664.459 841.016 664.459 842.268 663.207L860.407 645.068L878.546 663.207C879.799 664.459 881.829 664.459 883.081 663.207C884.333 661.955 884.333 659.924 883.081 658.672L862.675 638.266ZM368.86 638.266C367.608 637.013 365.578 637.013 364.325 638.266L343.919 658.672C342.667 659.924 342.667 661.955 343.919 663.207C345.171 664.459 347.201 664.459 348.454 663.207L366.593 645.068L384.732 663.207C385.984 664.459 388.015 664.459 389.267 663.207C390.519 661.955 390.519 659.924 389.267 658.672L368.86 638.266ZM857.201 640.533C857.201 775.728 748.079 885.302 613.5 885.302L613.5 891.716C751.647 891.716 863.614 779.244 863.614 640.533L857.201 640.533ZM613.5 885.302C478.921 885.302 369.799 775.728 369.799 640.533L363.386 640.533C363.386 779.244 475.353 891.716 613.5 891.716L613.5 885.302Z" fill="black"/>
<path d="M717.309 629.715C716.057 628.462 714.027 628.462 712.774 629.715L692.368 650.121C691.116 651.373 691.116 653.404 692.368 654.656C693.62 655.908 695.65 655.908 696.903 654.656L715.042 636.517L733.181 654.656C734.433 655.908 736.464 655.908 737.716 654.656C738.968 653.404 738.968 651.373 737.716 650.121L717.309 629.715ZM514.225 629.715C512.973 628.462 510.943 628.462 509.691 629.715L489.284 650.121C488.032 651.373 488.032 653.404 489.284 654.656C490.536 655.908 492.567 655.908 493.819 654.656L511.958 636.517L530.097 654.656C531.349 655.908 533.38 655.908 534.632 654.656C535.884 653.404 535.884 651.373 534.632 650.121L514.225 629.715ZM711.835 631.982C711.835 686.913 667.777 731.386 613.5 731.386L613.5 737.799C671.382 737.799 718.248 690.392 718.248 631.982L711.835 631.982ZM613.5 731.386C559.222 731.386 515.165 686.913 515.165 631.982L508.751 631.982C508.751 690.392 555.617 737.799 613.5 737.799L613.5 731.386Z" fill="black"/>
<path d="M1050.79 646.817C1049.54 645.564 1047.51 645.564 1046.26 646.817L1025.85 667.223C1024.6 668.475 1024.6 670.506 1025.85 671.758C1027.1 673.01 1029.14 673.01 1030.39 671.758L1048.53 653.619L1066.67 671.758C1067.92 673.01 1069.95 673.01 1071.2 671.758C1072.45 670.506 1072.45 668.475 1071.2 667.223L1050.79 646.817ZM180.74 646.816C179.488 645.564 177.458 645.564 176.206 646.816L155.799 667.223C154.547 668.475 154.547 670.506 155.799 671.758C157.051 673.01 159.081 673.01 160.334 671.758L178.473 653.619L196.612 671.758C197.864 673.01 199.895 673.01 201.147 671.758C202.399 670.506 202.399 668.475 201.147 667.223L180.74 646.816ZM1045.32 649.084C1045.32 888.169 851.98 1081.97 613.5 1081.97L613.5 1088.39C855.537 1088.39 1051.73 891.696 1051.73 649.084L1045.32 649.084ZM613.5 1081.97C375.019 1081.97 181.679 888.169 181.679 649.084L175.266 649.084C175.266 891.696 371.463 1088.39 613.5 1088.39L613.5 1081.97Z" fill="black"/>
<circle cx="613.5" cy="624.5" r="532.293" stroke="black" stroke-width="6.41317"/>
<circle cx="613.5" cy="624.5" r="342.036" stroke="black" stroke-width="6.41317"/>
<circle cx="613.5" cy="624.5" r="160.329" stroke="black" stroke-width="6.41317"/>
<path d="M563.073 611.422H568.141L573.289 633.212H573.369L579.116 611.422H584.224L589.811 633.212H589.891L595.198 611.422H600.267L592.405 639.916H587.336L581.63 618.127H581.55L575.723 639.916H570.575L563.073 611.422ZM602.914 611.422H607.463V621.998H607.543C608.102 621.066 608.927 620.295 610.017 619.683C611.135 619.044 612.372 618.725 613.729 618.725C615.99 618.725 617.773 619.31 619.076 620.481C620.38 621.652 621.032 623.408 621.032 625.749V639.916H616.482V626.946C616.429 625.323 616.083 624.153 615.445 623.434C614.806 622.689 613.809 622.317 612.452 622.317C611.68 622.317 610.989 622.463 610.377 622.756C609.765 623.022 609.246 623.408 608.82 623.913C608.395 624.392 608.062 624.964 607.823 625.629C607.583 626.294 607.463 626.999 607.463 627.744V639.916H602.914V611.422ZM623.555 619.284H628.543L633.931 634.688H634.011L639.239 619.284H643.988L635.966 641.034C635.594 641.965 635.221 642.856 634.849 643.707C634.503 644.559 634.064 645.304 633.532 645.942C633.026 646.607 632.388 647.126 631.616 647.499C630.845 647.898 629.86 648.097 628.663 648.097C627.599 648.097 626.548 648.017 625.51 647.858V644.027C625.883 644.08 626.242 644.133 626.588 644.186C626.934 644.266 627.293 644.306 627.665 644.306C628.197 644.306 628.636 644.239 628.982 644.106C629.328 643.973 629.608 643.774 629.82 643.508C630.06 643.268 630.259 642.976 630.419 642.63C630.579 642.284 630.725 641.885 630.858 641.433L631.377 639.836L623.555 619.284ZM652.43 634.928H657.778V639.916H652.43V634.928ZM646.085 620.481C646.085 619.018 646.298 617.688 646.723 616.49C647.176 615.293 647.814 614.269 648.639 613.417C649.49 612.566 650.501 611.914 651.672 611.462C652.869 610.983 654.199 610.744 655.663 610.744C656.887 610.744 658.017 610.93 659.055 611.302C660.119 611.648 661.037 612.167 661.809 612.859C662.607 613.524 663.232 614.362 663.684 615.373C664.136 616.384 664.363 617.528 664.363 618.805C664.363 619.736 664.256 620.548 664.043 621.239C663.857 621.904 663.591 622.49 663.245 622.995C662.926 623.474 662.553 623.913 662.128 624.312C661.702 624.685 661.276 625.057 660.851 625.43C660.345 625.855 659.88 626.268 659.454 626.667C659.028 627.066 658.656 627.518 658.337 628.024C658.017 628.503 657.765 629.075 657.578 629.74C657.419 630.405 657.339 631.216 657.339 632.174H653.029C653.029 631.003 653.082 630.019 653.188 629.221C653.321 628.396 653.521 627.678 653.787 627.066C654.053 626.454 654.372 625.922 654.745 625.47C655.144 624.991 655.61 624.525 656.142 624.073C656.567 623.7 656.966 623.354 657.339 623.035C657.738 622.716 658.084 622.37 658.376 621.998C658.696 621.599 658.935 621.16 659.095 620.681C659.281 620.202 659.374 619.63 659.374 618.965C659.374 618.166 659.228 617.488 658.935 616.929C658.669 616.344 658.337 615.878 657.937 615.533C657.538 615.187 657.113 614.934 656.66 614.774C656.208 614.615 655.809 614.535 655.463 614.535C653.814 614.535 652.59 615.08 651.792 616.171C651.02 617.235 650.634 618.672 650.634 620.481H646.085Z" fill="black"/>
<path d="M565.704 371.997H570.693V383.331H583.663V371.997H588.651V400.491H583.663V387.641H570.693V400.491H565.704V371.997ZM603.444 401.05C601.795 401.05 600.318 400.784 599.015 400.252C597.738 399.693 596.647 398.935 595.742 397.977C594.864 397.019 594.186 395.875 593.707 394.545C593.255 393.215 593.028 391.751 593.028 390.155C593.028 388.585 593.255 387.135 593.707 385.805C594.186 384.475 594.864 383.331 595.742 382.373C596.647 381.415 597.738 380.67 599.015 380.138C600.318 379.579 601.795 379.3 603.444 379.3C605.094 379.3 606.557 379.579 607.834 380.138C609.138 380.67 610.229 381.415 611.107 382.373C612.011 383.331 612.69 384.475 613.142 385.805C613.621 387.135 613.86 388.585 613.86 390.155C613.86 391.751 613.621 393.215 613.142 394.545C612.69 395.875 612.011 397.019 611.107 397.977C610.229 398.935 609.138 399.693 607.834 400.252C606.557 400.784 605.094 401.05 603.444 401.05ZM603.444 397.458C604.455 397.458 605.333 397.245 606.078 396.819C606.823 396.394 607.435 395.835 607.914 395.143C608.393 394.452 608.739 393.68 608.952 392.829C609.191 391.951 609.311 391.059 609.311 390.155C609.311 389.277 609.191 388.399 608.952 387.521C608.739 386.643 608.393 385.871 607.914 385.206C607.435 384.515 606.823 383.956 606.078 383.53C605.333 383.105 604.455 382.892 603.444 382.892C602.433 382.892 601.555 383.105 600.81 383.53C600.065 383.956 599.454 384.515 598.975 385.206C598.496 385.871 598.137 386.643 597.897 387.521C597.684 388.399 597.578 389.277 597.578 390.155C597.578 391.059 597.684 391.951 597.897 392.829C598.137 393.68 598.496 394.452 598.975 395.143C599.454 395.835 600.065 396.394 600.81 396.819C601.555 397.245 602.433 397.458 603.444 397.458ZM615.767 379.859H620.596L624.626 395.263H624.706L628.577 379.859H633.166L636.878 395.263H636.958L641.148 379.859H645.777L639.312 400.491H634.643L630.812 385.166H630.732L626.941 400.491H622.152L615.767 379.859ZM654.61 395.503H659.957V400.491H654.61V395.503ZM648.264 381.056C648.264 379.593 648.477 378.262 648.903 377.065C649.355 375.868 649.994 374.844 650.818 373.992C651.67 373.141 652.681 372.489 653.851 372.037C655.049 371.558 656.379 371.319 657.842 371.319C659.066 371.319 660.197 371.505 661.234 371.877C662.299 372.223 663.216 372.742 663.988 373.434C664.786 374.099 665.411 374.937 665.864 375.948C666.316 376.959 666.542 378.103 666.542 379.38C666.542 380.311 666.436 381.122 666.223 381.814C666.037 382.479 665.77 383.065 665.425 383.57C665.105 384.049 664.733 384.488 664.307 384.887C663.882 385.26 663.456 385.632 663.03 386.005C662.525 386.43 662.059 386.843 661.633 387.242C661.208 387.641 660.835 388.093 660.516 388.599C660.197 389.077 659.944 389.649 659.758 390.315C659.598 390.98 659.518 391.791 659.518 392.749H655.208C655.208 391.578 655.261 390.594 655.368 389.796C655.501 388.971 655.7 388.253 655.966 387.641C656.233 387.029 656.552 386.497 656.924 386.044C657.323 385.566 657.789 385.1 658.321 384.648C658.747 384.275 659.146 383.929 659.518 383.61C659.917 383.291 660.263 382.945 660.556 382.572C660.875 382.173 661.115 381.734 661.274 381.256C661.46 380.777 661.554 380.205 661.554 379.539C661.554 378.741 661.407 378.063 661.115 377.504C660.849 376.919 660.516 376.453 660.117 376.107C659.718 375.762 659.292 375.509 658.84 375.349C658.388 375.19 657.988 375.11 657.643 375.11C655.993 375.11 654.769 375.655 653.971 376.746C653.2 377.81 652.814 379.247 652.814 381.056H648.264Z" fill="black"/>
<path d="M554.619 188.153H559.687L564.835 209.942H564.915L570.661 188.153H575.77L581.357 209.942H581.436L586.744 188.153H591.812L583.951 216.647H578.882L573.176 194.857H573.096L567.269 216.647H562.121L554.619 188.153ZM594.46 188.153H599.009V198.728H599.089C599.648 197.797 600.473 197.025 601.563 196.414C602.681 195.775 603.918 195.456 605.275 195.456C607.536 195.456 609.319 196.041 610.622 197.212C611.926 198.382 612.578 200.138 612.578 202.479V216.647H608.028V203.677C607.975 202.054 607.629 200.883 606.991 200.165C606.352 199.42 605.355 199.047 603.998 199.047C603.226 199.047 602.534 199.194 601.922 199.486C601.311 199.752 600.792 200.138 600.366 200.644C599.94 201.123 599.608 201.695 599.368 202.36C599.129 203.025 599.009 203.73 599.009 204.475V216.647H594.46V188.153ZM634.655 212.057C634.655 212.616 634.722 213.015 634.855 213.255C635.015 213.494 635.307 213.614 635.733 213.614C635.866 213.614 636.026 213.614 636.212 213.614C636.398 213.614 636.611 213.587 636.85 213.534V216.687C636.691 216.74 636.478 216.793 636.212 216.846C635.972 216.926 635.72 216.993 635.454 217.046C635.188 217.099 634.922 217.139 634.655 217.165C634.389 217.192 634.163 217.205 633.977 217.205C633.046 217.205 632.274 217.019 631.662 216.647C631.05 216.274 630.651 215.622 630.465 214.691C629.561 215.569 628.443 216.208 627.113 216.607C625.809 217.006 624.546 217.205 623.322 217.205C622.391 217.205 621.499 217.072 620.648 216.806C619.797 216.567 619.038 216.208 618.373 215.729C617.735 215.223 617.216 214.598 616.817 213.853C616.444 213.082 616.258 212.19 616.258 211.179C616.258 209.902 616.484 208.865 616.936 208.067C617.415 207.268 618.027 206.643 618.772 206.191C619.544 205.739 620.395 205.419 621.326 205.233C622.284 205.02 623.242 204.861 624.2 204.754C625.024 204.595 625.809 204.488 626.554 204.435C627.299 204.355 627.951 204.235 628.51 204.076C629.095 203.916 629.547 203.677 629.867 203.357C630.212 203.012 630.385 202.506 630.385 201.841C630.385 201.256 630.239 200.777 629.946 200.404C629.68 200.032 629.334 199.752 628.909 199.566C628.51 199.353 628.057 199.22 627.552 199.167C627.046 199.087 626.568 199.047 626.115 199.047C624.838 199.047 623.787 199.313 622.963 199.846C622.138 200.378 621.672 201.202 621.566 202.32H617.016C617.096 200.99 617.415 199.885 617.974 199.008C618.533 198.13 619.238 197.425 620.089 196.892C620.967 196.36 621.952 195.988 623.042 195.775C624.133 195.562 625.251 195.456 626.395 195.456C627.406 195.456 628.403 195.562 629.388 195.775C630.372 195.988 631.25 196.334 632.022 196.813C632.82 197.291 633.458 197.917 633.937 198.688C634.416 199.433 634.655 200.351 634.655 201.442V212.057ZM630.106 206.311C629.414 206.763 628.563 207.042 627.552 207.149C626.541 207.228 625.53 207.362 624.519 207.548C624.04 207.628 623.574 207.747 623.122 207.907C622.67 208.04 622.271 208.239 621.925 208.506C621.579 208.745 621.3 209.078 621.087 209.503C620.901 209.902 620.808 210.395 620.808 210.98C620.808 211.485 620.954 211.911 621.247 212.257C621.539 212.603 621.885 212.882 622.284 213.095C622.71 213.281 623.162 213.414 623.641 213.494C624.146 213.574 624.599 213.614 624.998 213.614C625.503 213.614 626.049 213.547 626.634 213.414C627.219 213.281 627.765 213.055 628.27 212.736C628.802 212.416 629.241 212.017 629.587 211.539C629.933 211.033 630.106 210.421 630.106 209.703V206.311ZM637.476 196.014H640.908V189.829H645.457V196.014H649.568V199.407H645.457V210.421C645.457 210.9 645.47 211.312 645.497 211.658C645.55 212.004 645.643 212.297 645.776 212.536C645.936 212.776 646.162 212.962 646.455 213.095C646.747 213.201 647.146 213.255 647.652 213.255C647.971 213.255 648.29 213.255 648.61 213.255C648.929 213.228 649.248 213.175 649.568 213.095V216.607C649.062 216.66 648.57 216.713 648.091 216.766C647.612 216.82 647.12 216.846 646.614 216.846C645.417 216.846 644.446 216.74 643.701 216.527C642.983 216.288 642.411 215.955 641.985 215.529C641.586 215.077 641.307 214.518 641.147 213.853C641.014 213.188 640.934 212.43 640.908 211.578V199.407H637.476V196.014ZM658.747 211.658H664.094V216.647H658.747V211.658ZM652.401 197.212C652.401 195.748 652.614 194.418 653.04 193.221C653.492 192.024 654.131 190.999 654.955 190.148C655.807 189.297 656.818 188.645 657.988 188.193C659.186 187.714 660.516 187.474 661.979 187.474C663.203 187.474 664.334 187.66 665.371 188.033C666.435 188.379 667.353 188.898 668.125 189.589C668.923 190.254 669.548 191.093 670.001 192.103C670.453 193.114 670.679 194.259 670.679 195.536C670.679 196.467 670.573 197.278 670.36 197.97C670.173 198.635 669.907 199.22 669.562 199.726C669.242 200.205 668.87 200.644 668.444 201.043C668.018 201.415 667.593 201.788 667.167 202.16C666.662 202.586 666.196 202.998 665.77 203.397C665.345 203.796 664.972 204.249 664.653 204.754C664.334 205.233 664.081 205.805 663.895 206.47C663.735 207.135 663.655 207.947 663.655 208.905H659.345C659.345 207.734 659.398 206.75 659.505 205.951C659.638 205.127 659.837 204.408 660.103 203.796C660.37 203.185 660.689 202.652 661.061 202.2C661.46 201.721 661.926 201.256 662.458 200.803C662.884 200.431 663.283 200.085 663.655 199.766C664.054 199.447 664.4 199.101 664.693 198.728C665.012 198.329 665.252 197.89 665.411 197.411C665.597 196.932 665.691 196.36 665.691 195.695C665.691 194.897 665.544 194.219 665.252 193.66C664.985 193.075 664.653 192.609 664.254 192.263C663.855 191.917 663.429 191.665 662.977 191.505C662.525 191.345 662.125 191.265 661.78 191.265C660.13 191.265 658.906 191.811 658.108 192.902C657.337 193.966 656.951 195.403 656.951 197.212H652.401Z" fill="black"/>
</svg>
